<svg xmlns="http://www.w3.org/2000/svg" width="1196" height="136" viewBox="0 0 1196 136">
    <path fill="#C8C8C8" fill-rule="nonzero" d="M21 78.78c-.246 11.792-1.263 20.443-3.05 25.954-1.786 5.51-4.258 8.266-7.415 8.266-3.25 0-5.814-3.838-7.693-11.515C.962 93.81.015 83.377 0 70.19V47.377C0 34.142.959 23.77 2.876 16.262 4.794 8.754 7.416 5 10.743 5c3.142 0 5.575 2.815 7.3 8.447 1.725 5.63 2.71 14.27 2.957 25.917h-2.68c-.246-9.53-.966-16.34-2.16-20.43-1.194-4.092-3-6.137-5.417-6.137-2.542 0-4.52 2.96-5.938 8.88-1.417 5.92-2.125 14.51-2.125 25.772v22.524c0 11.166.685 19.853 2.056 26.062 1.37 6.208 3.304 9.313 5.799 9.313 2.618 0 4.512-2.046 5.683-6.137 1.17-4.09 1.871-10.9 2.102-20.43H21zm19.313 2.869H27.64L24.762 111H22L32.77 6h2.46L46 111h-2.762l-2.925-29.351zM29 74h11l-5.5-56L29 74zM52.438 6l10.04 92.38L72.561 6H76v105h-2.595V65.495l.227-45.793L63.48 111h-2.003L51.368 20.135l.227 45.072V111H49V6h3.438zM102 70.406c0 13.573-.96 24.065-2.881 31.476C97.198 109.294 94.503 113 91.035 113c-3.437 0-6.132-3.706-8.084-11.118C81 94.471 80.016 84.051 80 70.623V47.738c0-13.524.972-24.028 2.916-31.512C84.86 8.742 87.551 5 90.988 5c3.484 0 6.19 3.754 8.12 11.262C101.035 23.77 102 34.334 102 47.955v22.451zm-3-22.87c0-11.488-.687-20.116-2.062-25.884C95.564 15.884 93.585 13 91 13c-2.495 0-4.444 2.824-5.849 8.472C83.747 27.12 83.03 35.567 83 46.815V70.32c0 11.536.71 20.2 2.129 25.992 1.42 5.792 3.391 8.688 5.916 8.688 2.6 0 4.575-2.884 5.927-8.652C98.324 90.58 99 81.904 99 70.32V47.536zM127 6v105h-2.596V13.788h-11.308l-.677 46.948c-.24 13.846-.632 24.146-1.174 30.901-.541 6.755-1.301 11.647-2.28 14.675-.977 3.03-2.302 4.592-3.972 4.688H104v-7.644l.722-.144c1.234-.145 2.182-1.563 2.844-4.255.662-2.693 1.17-7.007 1.524-12.945.353-5.938.636-15.156.846-27.656l.7-52.356H127zm9 105h-3V6h3v105zm12.357-49.183h-3.74V111H142V6h2.616v48.101h3.58L158.847 6h3.305l-11.453 51.563L163 111h-3.259l-11.384-49.183zm26.611 10.28L182.862 6H186l-10.797 86.623-.914 6.244c-1.343 8.755-3.365 13.133-6.066 13.133-.906 0-1.53-.263-1.874-.79l.211-7.32c.281.335.843.503 1.686.503 1.546 0 2.772-2.919 3.678-8.756l.585-4.019 1.124-8.755L163 6h3.045l8.923 66.097zM188 111V6h8.656c3.08 0 5.414 2.32 7.001 6.96 1.588 4.639 2.381 11.477 2.381 20.516 0 5.385-.406 10.072-1.22 14.062-.813 3.99-1.939 6.875-3.377 8.654 1.657 1.298 2.998 4.267 4.023 8.907C206.488 69.738 207 75.183 207 81.433c0 9.134-.813 16.346-2.44 21.634-1.626 5.289-3.932 7.933-6.92 7.933H188zm3-50v43h6.746c1.936 0 3.462-1.934 4.579-5.801 1.117-3.867 1.675-9.233 1.675-16.098 0-6.381-.517-11.457-1.552-15.227-1.035-3.771-2.476-5.729-4.323-5.874H191zm0-8h5.9c1.93 0 3.428-1.649 4.497-4.947S203 39.857 203 33.357c0-6.644-.523-11.53-1.57-14.661-1.046-3.13-2.63-4.696-4.753-4.696H191v39zm35.313 28.649H213.64L210.762 111H208L218.77 6h2.46L232 111h-2.762l-2.925-29.351zM215 74h11l-5.5-56-5.5 56zm41 37h-2.645V60.736h-15.733V111H235V6h2.622v47.091h15.733V6H256v105zm26 0h-2.645V60.736h-15.733V111H261V6h2.622v47.091h15.733V6H282v105zm20.402 0V68.308h-7.614L288.778 111H286l6.507-45.288c-1.778-2.308-3.137-5.854-4.078-10.637-.942-4.784-1.412-10.59-1.412-17.416 0-9.904.828-17.657 2.485-23.258C291.159 8.801 293.5 6 296.528 6H305v105h-2.598zM290 37.898c0 6.904.563 12.48 1.688 16.73 1.126 4.248 2.714 6.372 4.766 6.372H303V14h-6.04c-2.252 0-3.974 2.076-5.168 6.228C290.597 24.38 290 30.27 290 37.898zM322.438 6l10.04 92.38L342.561 6H346v105h-2.595V65.495l.227-45.793L333.48 111h-2.003l-10.108-90.865.227 45.072V111H319V6h3.438zM373 70.406c0 13.573-.96 24.065-2.881 31.476-1.921 7.412-4.616 11.118-8.084 11.118-3.437 0-6.132-3.706-8.084-11.118C352 94.471 351.016 84.051 351 70.623V47.738c0-13.524.972-24.028 2.916-31.512C355.86 8.742 358.551 5 361.988 5c3.484 0 6.19 3.754 8.12 11.262C372.035 23.77 373 34.334 373 47.955v22.451zm-3-22.87c0-11.488-.687-20.116-2.062-25.884C366.564 15.884 364.585 13 362 13c-2.495 0-4.444 2.824-5.849 8.472-1.404 5.648-2.121 14.095-2.151 25.343V70.32c0 11.536.71 20.2 2.129 25.992 1.42 5.792 3.391 8.688 5.916 8.688 2.6 0 4.575-2.884 5.927-8.652C369.324 90.58 370 81.904 370 70.32V47.536zm25.499 13.632h-3.137V111h-2.633V61.168h-3.205L377.297 111H374l10.234-54.375L374.687 6h3.16l8.54 47.38h3.342V6h2.633v47.38h3.251L404.153 6h3.137l-9.524 50.553L408 111h-3.274l-9.227-49.832zm30.498-.432h-13.311v42.62H428V111h-18V6h17.882v7.788h-15.196v39.303h13.311v7.645zm30.066-46.948h-14.411v37.645h6.848c2.998 0 5.33 2.608 6.998 7.824C457.166 64.474 458 71.745 458 81.072c0 9.279-.838 16.587-2.513 21.923-1.676 5.337-3.99 8.005-6.94 8.005H439V6h17.063v7.788zM442 59v44h7.094c2.184 0 3.881-2.001 5.091-6.003 1.21-4.002 1.815-9.454 1.815-16.356 0-6.615-.601-11.863-1.803-15.746-1.202-3.882-2.872-5.847-5.008-5.895H442zm29.968 13.097L479.862 6H483l-10.797 86.623-.914 6.244c-1.343 8.755-3.365 13.133-6.066 13.133-.906 0-1.53-.263-1.874-.79l.211-7.32c.281.335.843.503 1.686.503 1.546 0 2.772-2.919 3.678-8.756l.585-4.019 1.124-8.755L460 6h3.045l8.923 66.097zM506 13.788h-9.669V111h-2.686V13.788H484V6h22v7.788zM526.363 6H529v105h-2.637V21.577L510.66 111H508V6h2.66v89.351L526.363 6zm19.303 0v97.356h11.036V6h2.643v97.356h10.989V6H573v105h-30V6h2.666zm38.691 55.817h-3.74V111H578V6h2.616v48.101h3.58L594.847 6h3.305l-11.453 51.563L599 111h-3.259l-11.384-49.183zM605 111h-3V6h3v105zm27.91-7.985H636L635.977 136h-2.613v-25.368h-20.75V136H610v-32.985h1.932c1.303-5.03 2.398-12.875 3.284-23.535.886-10.66 1.413-22.577 1.58-35.752l.5-37.728h15.613v97.015zM614 103h16V14h-10.846l-.399 29.953c-.187 12.66-.698 24.161-1.534 34.504C616.386 88.8 615.311 96.98 614 103zm46-97v105h-2.596V13.788h-11.308l-.677 46.948c-.24 13.846-.632 24.146-1.174 30.901-.541 6.755-1.301 11.647-2.28 14.675-.977 3.03-2.302 4.592-3.972 4.688H637v-7.644l.722-.144c1.234-.145 2.182-1.563 2.844-4.255.662-2.693 1.17-7.007 1.524-12.945.353-5.938.636-15.156.846-27.656l.7-52.356H660zm24.363 0H687v105h-2.637V21.577L668.66 111H666V6h2.66v89.351L684.363 6zM692 111V6h8.656c3.08 0 5.414 2.32 7.001 6.96 1.588 4.639 2.381 11.477 2.381 20.516 0 5.385-.406 10.072-1.22 14.062-.813 3.99-1.939 6.875-3.377 8.654 1.657 1.298 2.998 4.267 4.023 8.907C710.488 69.738 711 75.183 711 81.433c0 9.134-.813 16.346-2.44 21.634-1.626 5.289-3.932 7.933-6.92 7.933H692zm3-50v43h6.746c1.936 0 3.462-1.934 4.579-5.801 1.117-3.867 1.675-9.233 1.675-16.098 0-6.381-.517-11.457-1.552-15.227-1.035-3.771-2.476-5.729-4.323-5.874H695zm0-8h5.9c1.93 0 3.428-1.649 4.497-4.947S707 39.857 707 33.357c0-6.644-.523-11.53-1.57-14.661-1.046-3.13-2.63-4.696-4.753-4.696H695v39zm38.363-47H736v105h-2.637V21.577L717.66 111H715V6h2.66v89.351L733.363 6zm12.075 0l10.04 92.38L765.561 6H769v105h-2.595V65.495l.227-45.793L756.48 111h-2.003l-10.108-90.865.227 45.072V111H742V6h3.438zm58.471 97.015H807L806.977 136h-2.613v-25.368h-20.75V136H781v-32.985h1.932c1.303-5.03 2.398-12.875 3.284-23.535.886-10.66 1.413-22.577 1.58-35.752l.5-37.728h15.613v97.015zM785 103h16V14h-10.846l-.399 29.953c-.187 12.66-.698 24.161-1.534 34.504C787.386 88.8 786.311 96.98 785 103zm46-97v105h-2.596V13.788h-11.308l-.677 46.948c-.24 13.846-.632 24.146-1.174 30.901-.541 6.755-1.301 11.647-2.28 14.675-.977 3.03-2.302 4.592-3.972 4.688H808v-7.644l.722-.144c1.234-.145 2.182-1.563 2.844-4.255.662-2.693 1.17-7.007 1.524-12.945.353-5.938.636-15.156.846-27.656l.7-52.356H831zm20.402 105V68.308h-7.614L837.778 111H835l6.507-45.288c-1.778-2.308-3.137-5.854-4.078-10.637-.942-4.784-1.412-10.59-1.412-17.416 0-9.904.828-17.657 2.485-23.258C840.159 8.801 842.5 6 845.528 6H854v105h-2.598zM839 37.898c0 6.904.563 12.48 1.688 16.73 1.126 4.248 2.714 6.372 4.766 6.372H852V14h-6.04c-2.252 0-3.974 2.076-5.168 6.228C839.597 24.38 839 30.27 839 37.898zM868 111V6h8.656c3.08 0 5.414 2.32 7.001 6.96 1.588 4.639 2.381 11.477 2.381 20.516 0 5.385-.406 10.072-1.22 14.062-.813 3.99-1.939 6.875-3.377 8.654 1.657 1.298 2.998 4.267 4.023 8.907C886.488 69.738 887 75.183 887 81.433c0 9.134-.813 16.346-2.44 21.634-1.626 5.289-3.932 7.933-6.92 7.933H868zm3-50v43h6.746c1.936 0 3.462-1.934 4.579-5.801 1.117-3.867 1.675-9.233 1.675-16.098 0-6.381-.517-11.457-1.552-15.227-1.035-3.771-2.476-5.729-4.323-5.874H871zm0-8h5.9c1.93 0 3.428-1.649 4.497-4.947S883 39.857 883 33.357c0-6.644-.523-11.53-1.57-14.661-1.046-3.13-2.63-4.696-4.753-4.696H871v39zm35.313 28.649H893.64L890.762 111H888L898.77 6h2.46L912 111h-2.762l-2.925-29.351zM894 74h11l-5.5-56-5.5 56zm22.666-68v97.356h11.036V6h2.643v97.356h10.989V6H944v105h-30V6h2.666zM970 70.406c0 13.573-.96 24.065-2.881 31.476-1.921 7.412-4.616 11.118-8.084 11.118-3.437 0-6.132-3.706-8.084-11.118C949 94.471 948.016 84.051 948 70.623V47.738c0-13.524.972-24.028 2.916-31.512C952.86 8.742 955.551 5 958.988 5c3.484 0 6.19 3.754 8.12 11.262C969.035 23.77 970 34.334 970 47.955v22.451zm-3-22.87c0-11.488-.687-20.116-2.062-25.884C963.564 15.884 961.585 13 959 13c-2.495 0-4.444 2.824-5.849 8.472-1.404 5.648-2.121 14.095-2.151 25.343V70.32c0 11.536.71 20.2 2.129 25.992 1.42 5.792 3.391 8.688 5.916 8.688 2.6 0 4.575-2.884 5.927-8.652C966.324 90.58 967 81.904 967 70.32V47.536zm25-33.748h-14.381V111H975V6h17v7.788zm23 56.618c0 13.573-.96 24.065-2.881 31.476-1.921 7.412-4.616 11.118-8.084 11.118-3.437 0-6.132-3.706-8.084-11.118C994 94.471 993.016 84.051 993 70.623V47.738c0-13.524.972-24.028 2.916-31.512C997.86 8.742 1000.551 5 1003.988 5c3.484 0 6.19 3.754 8.12 11.262 1.928 7.508 2.892 18.072 2.892 31.693v22.451zm-3-22.87c0-11.488-.687-20.116-2.062-25.884-1.374-5.768-3.353-8.652-5.938-8.652-2.495 0-4.444 2.824-5.849 8.472-1.404 5.648-2.121 14.095-2.151 25.343V70.32c0 11.536.71 20.2 2.129 25.992 1.42 5.792 3.391 8.688 5.916 8.688 2.6 0 4.575-2.884 5.927-8.652 1.352-5.768 2.028-14.444 2.028-26.028V47.536zm29.946-13.659c0-6.642-.624-11.828-1.871-15.557-1.248-3.73-2.997-5.595-5.247-5.595-1.929 0-3.544 1.973-4.845 5.92-1.301 3.946-1.952 9.072-1.952 15.376h-2.618c0-5.583.41-10.588 1.229-15.016.819-4.427 1.955-7.869 3.41-10.323 1.454-2.455 3.046-3.682 4.776-3.682 3.061 0 5.453 2.55 7.175 7.652 1.723 5.102 2.584 12.273 2.584 21.514 0 5.198-.437 9.878-1.31 14.041-.872 4.163-2.112 7.328-3.719 9.494 1.806 1.828 3.165 4.885 4.076 9.168.91 4.283 1.366 9.65 1.366 16.099 0 9.096-.918 16.376-2.755 21.838-1.837 5.463-4.31 8.194-7.417 8.194-1.822 0-3.498-1.263-5.029-3.79-1.53-2.527-2.713-6.076-3.548-10.649-.834-4.572-1.251-9.962-1.251-16.17h2.618c0 6.69.68 12.2 2.043 16.531 1.363 4.332 3.085 6.498 5.167 6.498 2.342 0 4.187-1.985 5.534-5.956 1.347-3.97 2.02-9.373 2.02-16.207 0-7.508-.639-12.947-1.917-16.316-1.278-3.369-3.127-5.053-5.545-5.053h-3.33V54.09h3.215c4.76 0 7.141-6.738 7.141-20.214zm27.963 69.138H1073l-.023 32.985h-2.613v-25.368h-20.75V136H1047v-32.985h1.932c1.303-5.03 2.398-12.875 3.284-23.535.886-10.66 1.413-22.577 1.58-35.752l.5-37.728h15.613v97.015zM1052 103h16V14h-10.846l-.399 29.953c-.187 12.66-.698 24.161-1.534 34.504-.835 10.343-1.91 18.524-3.221 24.543zm45-32.594c0 13.573-.96 24.065-2.881 31.476-1.921 7.412-4.616 11.118-8.084 11.118-3.437 0-6.132-3.706-8.084-11.118-1.952-7.411-2.935-17.831-2.951-31.259V47.738c0-13.524.972-24.028 2.916-31.512C1079.86 8.742 1082.551 5 1085.988 5c3.484 0 6.19 3.754 8.12 11.262 1.928 7.508 2.892 18.072 2.892 31.693v22.451zm-3-22.87c0-11.488-.687-20.116-2.062-25.884-1.374-5.768-3.353-8.652-5.938-8.652-2.495 0-4.444 2.824-5.849 8.472-1.404 5.648-2.121 14.095-2.151 25.343V70.32c0 11.536.71 20.2 2.129 25.992 1.42 5.792 3.391 8.688 5.916 8.688 2.6 0 4.575-2.884 5.927-8.652 1.352-5.768 2.028-14.444 2.028-26.028V47.536zm10.585 20.772V111H1102V6h9.59c2.918 0 5.215 2.788 6.893 8.365S1121 27.611 1121 37.37c0 9.952-.812 17.596-2.437 22.933-1.625 5.336-3.964 8.005-7.018 8.005h-6.96zM1104 61h7.092c2.203 0 3.905-2.016 5.106-6.047s1.802-9.74 1.802-17.127c0-7.387-.608-13.205-1.825-17.453-1.216-4.249-2.903-6.373-5.06-6.373H1104v47zm41 9.406c0 13.573-.96 24.065-2.881 31.476-1.921 7.412-4.616 11.118-8.084 11.118-3.437 0-6.132-3.706-8.084-11.118-1.952-7.411-2.935-17.831-2.951-31.259V47.738c0-13.524.972-24.028 2.916-31.512C1127.86 8.742 1130.551 5 1133.988 5c3.484 0 6.19 3.754 8.12 11.262 1.928 7.508 2.892 18.072 2.892 31.693v22.451zm-3-22.87c0-11.488-.687-20.116-2.062-25.884-1.374-5.768-3.353-8.652-5.938-8.652-2.495 0-4.444 2.824-5.849 8.472-1.404 5.648-2.121 14.095-2.151 25.343V70.32c0 11.536.71 20.2 2.129 25.992 1.42 5.792 3.391 8.688 5.916 8.688 2.6 0 4.575-2.884 5.927-8.652 1.352-5.768 2.028-14.444 2.028-26.028V47.536zm8 63.464V6h8.656c3.08 0 5.414 2.32 7.001 6.96 1.588 4.639 2.381 11.477 2.381 20.516 0 5.385-.406 10.072-1.22 14.062-.813 3.99-1.939 6.875-3.377 8.654 1.657 1.298 2.998 4.267 4.023 8.907 1.024 4.639 1.536 10.084 1.536 16.334 0 9.134-.813 16.346-2.44 21.634-1.626 5.289-3.932 7.933-6.92 7.933H1150zm3-50v43h6.746c1.936 0 3.462-1.934 4.579-5.801 1.117-3.867 1.675-9.233 1.675-16.098 0-6.381-.517-11.457-1.552-15.227-1.035-3.771-2.476-5.729-4.323-5.874H1153zm0-8h5.9c1.93 0 3.428-1.649 4.497-4.947S1165 39.857 1165 33.357c0-6.644-.523-11.53-1.57-14.661-1.046-3.13-2.63-4.696-4.753-4.696H1153v39zm18.383-21L1170 28.137c1.064-5.929 1.617-12.028 1.66-18.296V0h2.34v7.29c0 10.302-.872 18.538-2.617 24.71zm22.019 79V68.308h-7.614l-6.01 42.692H1177l6.507-45.288c-1.778-2.308-3.137-5.854-4.078-10.637-.942-4.784-1.412-10.59-1.412-17.416 0-9.904.828-17.657 2.485-23.258 1.657-5.6 3.999-8.401 7.026-8.401H1196v105h-2.598zM1180 37.898c0 6.904.563 12.48 1.688 16.73 1.126 4.248 2.714 6.372 4.766 6.372H1193V14h-6.04c-2.252 0-3.974 2.076-5.168 6.228-1.195 4.152-1.792 10.042-1.792 17.67z"/>
</svg>
